<svg xmlns="http://www.w3.org/2000/svg" viewBox="0 0 1000 1000" width="1000" height="1000" preserveAspectRatio="xMidYMid meet"><defs>
<linearGradient id="onyx" x1="0" y1="0" x2=".55" y2="1">
<stop offset="0" stop-color="#45454A"/><stop offset=".42" stop-color="#242428"/><stop offset="1" stop-color="#0C0C0E"/></linearGradient>
<linearGradient id="onyxH" x1="0" y1="0" x2="1" y2=".35">
<stop offset="0" stop-color="#2E2E33"/><stop offset=".48" stop-color="#191A1D"/><stop offset="1" stop-color="#09090B"/></linearGradient>
<linearGradient id="graphite" x1="0" y1="0" x2=".3" y2="1">
<stop offset="0" stop-color="#5A5A60"/><stop offset=".5" stop-color="#33343A"/><stop offset="1" stop-color="#16171A"/></linearGradient>
<linearGradient id="linen" x1="0" y1="0" x2=".4" y2="1">
<stop offset="0" stop-color="#FCFBF8"/><stop offset=".48" stop-color="#EAE8E2"/><stop offset="1" stop-color="#CBC8C0"/></linearGradient>
<linearGradient id="alu" x1="0" y1="0" x2="1" y2=".85">
<stop offset="0" stop-color="#F4F4F2"/><stop offset=".3" stop-color="#D9D9D5"/><stop offset=".58" stop-color="#B4B4AF"/><stop offset=".8" stop-color="#DEDEDA"/><stop offset="1" stop-color="#C3C3BE"/></linearGradient>
<linearGradient id="cushion" x1="0" y1="0" x2=".2" y2="1">
<stop offset="0" stop-color="#3A3A40"/><stop offset="1" stop-color="#111114"/></linearGradient>
<radialGradient id="screen" cx=".34" cy=".24" r=".95">
<stop offset="0" stop-color="#20232A"/><stop offset=".55" stop-color="#0D0E11"/><stop offset="1" stop-color="#040405"/></radialGradient>
<linearGradient id="sheen" x1="0" y1="0" x2=".8" y2="1">
<stop offset="0" stop-color="#fff" stop-opacity=".40"/><stop offset=".45" stop-color="#fff" stop-opacity=".07"/><stop offset="1" stop-color="#fff" stop-opacity="0"/></linearGradient>
<linearGradient id="rim" x1="0" y1="0" x2="0" y2="1">
<stop offset="0" stop-color="#fff" stop-opacity=".55"/><stop offset=".35" stop-color="#fff" stop-opacity=".08"/><stop offset="1" stop-color="#fff" stop-opacity="0"/></linearGradient>
<filter id="bS" x="-60%" y="-60%" width="220%" height="220%"><feGaussianBlur stdDeviation="4"/></filter>
<filter id="bM" x="-60%" y="-60%" width="220%" height="220%"><feGaussianBlur stdDeviation="14"/></filter>
<filter id="bL" x="-70%" y="-70%" width="240%" height="240%"><feGaussianBlur stdDeviation="34"/></filter>
</defs><ellipse cx="520" cy="884" rx="268" ry="30" fill="#0B0B0C" opacity="0.2" filter="url(#bL)"/><path d="M 621.0 387.3 L 625.0 386.7 A 86 86 0 0 1 723.4 458.2 L 735.9 537.2 A 86 86 0 0 1 664.4 635.6 L 660.4 636.2 A 86 86 0 0 1 562.0 564.7 L 549.5 485.7 A 86 86 0 0 1 621.0 387.3 Z" fill="url(#onyxH)" opacity=".96"/><path d="M 621.0 387.3 L 625.0 386.7 A 86 86 0 0 1 723.4 458.2 L 735.9 537.2 A 86 86 0 0 1 664.4 635.6 L 660.4 636.2 A 86 86 0 0 1 562.0 564.7 L 549.5 485.7 A 86 86 0 0 1 621.0 387.3 Z" fill="none" stroke="url(#rim)" stroke-width="2" opacity=".5"/><path d="M 583.4 520.9 A 60 92 -9 0 1 702.0 502.1 A 60 92 -9 0 1 583.4 520.9 Z" fill="#0A0A0C" opacity=".55"/><path d="M 300.0 470.0 C 296.0 196.0 700.0 168.0 726.0 420.0" fill="none" stroke="url(#alu)" stroke-width="46" stroke-linecap="round"/><path d="M 314.0 452.0 C 312.0 224.0 688.0 200.0 712.0 414.0" fill="none" stroke="url(#alu)" stroke-width="18" opacity=".92" stroke-linecap="round"/><path d="M 300.0 450.0 C 300.0 206.0 700.0 180.0 724.0 408.0" fill="none" stroke="url(#rim)" stroke-width="3" opacity=".7" stroke-linecap="round"/><path d="M 301.0 396.0 L 301.0 396.0 A 17 17 0 0 1 318.0 413.0 L 318.0 495.0 A 17 17 0 0 1 301.0 512.0 L 301.0 512.0 A 17 17 0 0 1 284.0 495.0 L 284.0 413.0 A 17 17 0 0 1 301.0 396.0 Z" fill="url(#alu)"/><path d="M 301.0 412.0 L 301.0 412.0 A 9 9 0 0 1 310.0 421.0 L 310.0 487.0 A 9 9 0 0 1 301.0 496.0 L 301.0 496.0 A 9 9 0 0 1 292.0 487.0 L 292.0 421.0 A 9 9 0 0 1 301.0 412.0 Z" fill="#000" opacity=".16"/><path d="M 341.8 470.3 L 353.7 471.6 A 128 128 0 0 1 467.7 612.2 L 458.7 697.8 A 128 128 0 0 1 318.0 811.7 L 306.1 810.4 A 128 128 0 0 1 192.1 669.8 L 201.1 584.2 A 128 128 0 0 1 341.8 470.3 Z" fill="url(#linen)"/><path d="M 341.8 470.3 L 353.7 471.6 A 128 128 0 0 1 467.7 612.2 L 458.7 697.8 A 128 128 0 0 1 318.0 811.7 L 306.1 810.4 A 128 128 0 0 1 192.1 669.8 L 201.1 584.2 A 128 128 0 0 1 341.8 470.3 Z" fill="none" stroke="url(#rim)" stroke-width="3" opacity=".85"/><path d="M 248.3 632.4 A 104 140 6 0 1 455.2 654.2 A 104 140 6 0 1 248.3 632.4 Z" fill="url(#cushion)"/><path d="M 248.3 632.4 A 104 140 6 0 1 455.2 654.2 A 104 140 6 0 1 248.3 632.4 Z" fill="none" stroke="#000" stroke-width="4" stroke-opacity=".40"/><path d="M 294.1 637.2 A 70 104 6 0 1 433.3 651.9 A 70 104 6 0 1 294.1 637.2 Z" fill="#08080A"/><path d="M 294.1 637.2 A 70 104 6 0 1 433.3 651.9 A 70 104 6 0 1 294.1 637.2 Z" fill="none" stroke="#fff" stroke-width="2" stroke-opacity=".07"/><path d="M 321.9 640.2 A 46 72 6 0 1 413.4 649.8 A 46 72 6 0 1 321.9 640.2 Z" fill="#101013" opacity=".9"/><ellipse cx="272.2" cy="539.4" rx="62" ry="86" fill="#fff" opacity=".17" filter="url(#bM)" transform="rotate(-20 272.2 539.4)"/></svg>