<svg xmlns="http://www.w3.org/2000/svg" viewBox="0 0 1000 1000" width="1000" height="1000" preserveAspectRatio="xMidYMid meet"><defs>
<linearGradient id="onyx" x1="0" y1="0" x2=".55" y2="1">
<stop offset="0" stop-color="#45454A"/><stop offset=".42" stop-color="#242428"/><stop offset="1" stop-color="#0C0C0E"/></linearGradient>
<linearGradient id="onyxH" x1="0" y1="0" x2="1" y2=".35">
<stop offset="0" stop-color="#2E2E33"/><stop offset=".48" stop-color="#191A1D"/><stop offset="1" stop-color="#09090B"/></linearGradient>
<linearGradient id="graphite" x1="0" y1="0" x2=".3" y2="1">
<stop offset="0" stop-color="#5A5A60"/><stop offset=".5" stop-color="#33343A"/><stop offset="1" stop-color="#16171A"/></linearGradient>
<linearGradient id="linen" x1="0" y1="0" x2=".4" y2="1">
<stop offset="0" stop-color="#FCFBF8"/><stop offset=".48" stop-color="#EAE8E2"/><stop offset="1" stop-color="#CBC8C0"/></linearGradient>
<linearGradient id="alu" x1="0" y1="0" x2="1" y2=".85">
<stop offset="0" stop-color="#F4F4F2"/><stop offset=".3" stop-color="#D9D9D5"/><stop offset=".58" stop-color="#B4B4AF"/><stop offset=".8" stop-color="#DEDEDA"/><stop offset="1" stop-color="#C3C3BE"/></linearGradient>
<linearGradient id="cushion" x1="0" y1="0" x2=".2" y2="1">
<stop offset="0" stop-color="#3A3A40"/><stop offset="1" stop-color="#111114"/></linearGradient>
<radialGradient id="screen" cx=".34" cy=".24" r=".95">
<stop offset="0" stop-color="#20232A"/><stop offset=".55" stop-color="#0D0E11"/><stop offset="1" stop-color="#040405"/></radialGradient>
<linearGradient id="sheen" x1="0" y1="0" x2=".8" y2="1">
<stop offset="0" stop-color="#fff" stop-opacity=".40"/><stop offset=".45" stop-color="#fff" stop-opacity=".07"/><stop offset="1" stop-color="#fff" stop-opacity="0"/></linearGradient>
<linearGradient id="rim" x1="0" y1="0" x2="0" y2="1">
<stop offset="0" stop-color="#fff" stop-opacity=".55"/><stop offset=".35" stop-color="#fff" stop-opacity=".08"/><stop offset="1" stop-color="#fff" stop-opacity="0"/></linearGradient>
<filter id="bS" x="-60%" y="-60%" width="220%" height="220%"><feGaussianBlur stdDeviation="4"/></filter>
<filter id="bM" x="-60%" y="-60%" width="220%" height="220%"><feGaussianBlur stdDeviation="14"/></filter>
<filter id="bL" x="-70%" y="-70%" width="240%" height="240%"><feGaussianBlur stdDeviation="34"/></filter>
</defs><ellipse cx="520" cy="876" rx="246" ry="24" fill="#0B0B0C" opacity="0.16" filter="url(#bL)"/><path d="M 170.0 500.0 A 330 330 0 0 1 830.0 500.0 A 330 330 0 0 1 170.0 500.0 Z" fill="url(#onyx)"/><path d="M 170.0 500.0 A 330 330 0 0 1 830.0 500.0 A 330 330 0 0 1 170.0 500.0 Z" fill="none" stroke="url(#rim)" stroke-width="3" opacity=".8"/><path d="M 248.0 500.0 A 252 252 0 0 1 752.0 500.0 A 252 252 0 0 1 248.0 500.0 Z" fill="url(#cushion)"/><path d="M 248.0 500.0 A 252 252 0 0 1 752.0 500.0 A 252 252 0 0 1 248.0 500.0 Z" fill="none" stroke="#000" stroke-width="4" stroke-opacity=".38"/><path d="M 324.0 500.0 A 176 176 0 0 1 676.0 500.0 A 176 176 0 0 1 324.0 500.0 Z" fill="#0A0A0C"/><path d="M 460.0 500.0 A 40 40 0 0 1 540.0 500.0 A 40 40 0 0 1 460.0 500.0 Z" fill="none" stroke="#fff" stroke-width="1.5" stroke-opacity=".055"/><path d="M 438.0 500.0 A 62 62 0 0 1 562.0 500.0 A 62 62 0 0 1 438.0 500.0 Z" fill="none" stroke="#fff" stroke-width="1.5" stroke-opacity=".055"/><path d="M 416.0 500.0 A 84 84 0 0 1 584.0 500.0 A 84 84 0 0 1 416.0 500.0 Z" fill="none" stroke="#fff" stroke-width="1.5" stroke-opacity=".055"/><path d="M 394.0 500.0 A 106 106 0 0 1 606.0 500.0 A 106 106 0 0 1 394.0 500.0 Z" fill="none" stroke="#fff" stroke-width="1.5" stroke-opacity=".055"/><path d="M 372.0 500.0 A 128 128 0 0 1 628.0 500.0 A 128 128 0 0 1 372.0 500.0 Z" fill="none" stroke="#fff" stroke-width="1.5" stroke-opacity=".055"/><path d="M 350.0 500.0 A 150 150 0 0 1 650.0 500.0 A 150 150 0 0 1 350.0 500.0 Z" fill="none" stroke="#fff" stroke-width="1.5" stroke-opacity=".055"/><path d="M 328.0 500.0 A 172 172 0 0 1 672.0 500.0 A 172 172 0 0 1 328.0 500.0 Z" fill="none" stroke="#fff" stroke-width="1.5" stroke-opacity=".055"/><path d="M 474.0 500.0 A 26 26 0 0 1 526.0 500.0 A 26 26 0 0 1 474.0 500.0 Z" fill="url(#graphite)"/><path d="M 500.0 118.0 L 500.0 118.0 A 32 32 0 0 1 532.0 150.0 L 532.0 210.0 A 32 32 0 0 1 500.0 242.0 L 500.0 242.0 A 32 32 0 0 1 468.0 210.0 L 468.0 150.0 A 32 32 0 0 1 500.0 118.0 Z" fill="url(#alu)"/><path d="M 500.0 140.0 L 500.0 140.0 A 20 20 0 0 1 520.0 160.0 L 520.0 196.0 A 20 20 0 0 1 500.0 216.0 L 500.0 216.0 A 20 20 0 0 1 480.0 196.0 L 480.0 160.0 A 20 20 0 0 1 500.0 140.0 Z" fill="#000" opacity=".14"/><ellipse cx="392" cy="372" rx="118" ry="92" fill="#fff" opacity=".14" filter="url(#bM)" transform="rotate(-20 392 372)"/><circle cx="678" cy="718" r="19.2" fill="#C9F24C" opacity=".30" filter="url(#bS)"/><circle cx="678" cy="718" r="8" fill="#C9F24C"/></svg>